<mxfile host="Electron" agent="Mozilla/5.0 (Windows NT 10.0; Win64; x64) AppleWebKit/537.36 (KHTML, like Gecko) draw.io/27.0.9 Chrome/134.0.6998.205 Electron/35.4.0 Safari/537.36" version="27.0.9">
  <diagram id="_kltjX0dZ1afKoBh7RQo" name="Version 1">
    <mxGraphModel dx="1585" dy="995" grid="1" gridSize="10" guides="1" tooltips="1" connect="1" arrows="1" fold="1" page="1" pageScale="1" pageWidth="850" pageHeight="1100" math="0" shadow="0">
      <root>
        <mxCell id="0" />
        <mxCell id="1" parent="0" />
        <mxCell id="xZkq6OMs5n-9DprCI7Dk-1" value="" style="rounded=0;whiteSpace=wrap;html=1;" parent="1" vertex="1">
          <mxGeometry x="90" y="20" width="570" height="440" as="geometry" />
        </mxCell>
        <mxCell id="rR4SrOsn7YcrLf4KnVZ0-2" value="" style="rounded=0;whiteSpace=wrap;html=1;" parent="1" vertex="1">
          <mxGeometry x="90" y="20" width="280" height="440" as="geometry" />
        </mxCell>
        <mxCell id="rR4SrOsn7YcrLf4KnVZ0-4" value="" style="ellipse;whiteSpace=wrap;html=1;aspect=fixed;" parent="1" vertex="1">
          <mxGeometry x="140" y="60" width="360" height="360" as="geometry" />
        </mxCell>
        <mxCell id="rR4SrOsn7YcrLf4KnVZ0-7" value="" style="triangle;whiteSpace=wrap;html=1;rotation=-120;" parent="1" vertex="1">
          <mxGeometry x="290" y="190" width="60" height="30" as="geometry" />
        </mxCell>
        <mxCell id="rR4SrOsn7YcrLf4KnVZ0-6" value="" style="ellipse;whiteSpace=wrap;html=1;aspect=fixed;" parent="1" vertex="1">
          <mxGeometry x="300" y="200" width="80" height="80" as="geometry" />
        </mxCell>
        <mxCell id="rR4SrOsn7YcrLf4KnVZ0-5" value="" style="rounded=0;whiteSpace=wrap;html=1;" parent="1" vertex="1">
          <mxGeometry x="370" y="20" width="290" height="440" as="geometry" />
        </mxCell>
        <mxCell id="rR4SrOsn7YcrLf4KnVZ0-1" value="Log-in with Google" style="html=1;shadow=0;dashed=0;shape=mxgraph.bootstrap.rrect;rSize=5;strokeColor=none;strokeWidth=1;fillColor=#DB2843;fontColor=#FFFFFF;whiteSpace=wrap;align=center;verticalAlign=middle;spacingLeft=0;fontStyle=0;fontSize=16;spacing=5;" parent="1" vertex="1">
          <mxGeometry x="440" y="220" width="175" height="40" as="geometry" />
        </mxCell>
        <mxCell id="rR4SrOsn7YcrLf4KnVZ0-3" value="Log-in with Github" style="html=1;shadow=0;dashed=0;shape=mxgraph.bootstrap.rrect;rSize=5;strokeColor=none;strokeWidth=1;fillColor=#343A40;fontColor=#ffffff;whiteSpace=wrap;align=center;verticalAlign=middle;spacingLeft=0;fontStyle=0;fontSize=16;spacing=5;" parent="1" vertex="1">
          <mxGeometry x="440" y="280" width="170" height="40" as="geometry" />
        </mxCell>
        <mxCell id="rR4SrOsn7YcrLf4KnVZ0-8" value="&lt;h1 style=&quot;margin-top: 0px;&quot;&gt;TODOulette&lt;/h1&gt;" style="text;html=1;whiteSpace=wrap;overflow=hidden;rounded=0;" parent="1" vertex="1">
          <mxGeometry x="455" y="60" width="140" height="40" as="geometry" />
        </mxCell>
        <mxCell id="RsYt-immf06iiw5ztlk2-2" value="" style="rounded=0;whiteSpace=wrap;html=1;" parent="1" vertex="1">
          <mxGeometry x="760" y="20" width="570" height="440" as="geometry" />
        </mxCell>
        <mxCell id="RsYt-immf06iiw5ztlk2-3" value="" style="rounded=0;whiteSpace=wrap;html=1;" parent="1" vertex="1">
          <mxGeometry x="760" y="20" width="120" height="440" as="geometry" />
        </mxCell>
        <mxCell id="RsYt-immf06iiw5ztlk2-4" value="&lt;h1 style=&quot;margin-top: 0px;&quot;&gt;&lt;font style=&quot;font-size: 18px;&quot;&gt;TODOulette&lt;/font&gt;&lt;/h1&gt;" style="text;html=1;whiteSpace=wrap;overflow=hidden;rounded=0;" parent="1" vertex="1">
          <mxGeometry x="780" y="20" width="140" height="40" as="geometry" />
        </mxCell>
        <mxCell id="RsYt-immf06iiw5ztlk2-5" value="Configure roulette" style="html=1;shadow=0;dashed=0;shape=mxgraph.bootstrap.rrect;rSize=5;strokeColor=none;strokeWidth=1;fillColor=#33A64C;fontColor=#FFFFFF;whiteSpace=wrap;align=center;verticalAlign=middle;spacingLeft=0;fontStyle=0;fontSize=16;spacing=5;" parent="1" vertex="1">
          <mxGeometry x="1030" y="250" width="160" height="40" as="geometry" />
        </mxCell>
        <mxCell id="mvWhSziDv5Osz0h54IR4-1" value="Configure your roulette to get started" style="text;html=1;align=center;verticalAlign=middle;whiteSpace=wrap;rounded=0;" parent="1" vertex="1">
          <mxGeometry x="1020" y="200" width="180" height="30" as="geometry" />
        </mxCell>
        <mxCell id="mvWhSziDv5Osz0h54IR4-3" value="Logout" style="text;html=1;align=center;verticalAlign=middle;whiteSpace=wrap;rounded=0;" parent="1" vertex="1">
          <mxGeometry x="790" y="420" width="60" height="30" as="geometry" />
        </mxCell>
        <mxCell id="mvWhSziDv5Osz0h54IR4-7" value="Get more roulettes with premium" style="text;html=1;align=center;verticalAlign=middle;whiteSpace=wrap;rounded=0;" parent="1" vertex="1">
          <mxGeometry x="780" y="225" width="80" height="30" as="geometry" />
        </mxCell>
        <mxCell id="mvWhSziDv5Osz0h54IR4-9" value="" style="rounded=0;whiteSpace=wrap;html=1;" parent="1" vertex="1">
          <mxGeometry x="760" y="530" width="570" height="440" as="geometry" />
        </mxCell>
        <mxCell id="mvWhSziDv5Osz0h54IR4-10" value="" style="rounded=0;whiteSpace=wrap;html=1;" parent="1" vertex="1">
          <mxGeometry x="760" y="530" width="120" height="440" as="geometry" />
        </mxCell>
        <mxCell id="mvWhSziDv5Osz0h54IR4-12" value="Configure roulette" style="html=1;shadow=0;dashed=0;shape=mxgraph.bootstrap.rrect;rSize=5;strokeColor=none;strokeWidth=1;fillColor=#33A64C;fontColor=#FFFFFF;whiteSpace=wrap;align=center;verticalAlign=middle;spacingLeft=0;fontStyle=0;fontSize=16;spacing=5;" parent="1" vertex="1">
          <mxGeometry x="1030" y="760" width="160" height="40" as="geometry" />
        </mxCell>
        <mxCell id="mvWhSziDv5Osz0h54IR4-13" value="Configure your roulette to get started" style="text;html=1;align=center;verticalAlign=middle;whiteSpace=wrap;rounded=0;" parent="1" vertex="1">
          <mxGeometry x="1020" y="710" width="180" height="30" as="geometry" />
        </mxCell>
        <mxCell id="mvWhSziDv5Osz0h54IR4-20" value="My account" style="text;html=1;align=center;verticalAlign=middle;whiteSpace=wrap;rounded=0;" parent="1" vertex="1">
          <mxGeometry x="790" y="390" width="60" height="30" as="geometry" />
        </mxCell>
        <mxCell id="mvWhSziDv5Osz0h54IR4-21" value="" style="rounded=0;whiteSpace=wrap;html=1;" parent="1" vertex="1">
          <mxGeometry x="1410" y="20" width="570" height="440" as="geometry" />
        </mxCell>
        <mxCell id="mvWhSziDv5Osz0h54IR4-22" value="" style="rounded=0;whiteSpace=wrap;html=1;" parent="1" vertex="1">
          <mxGeometry x="1410" y="20" width="120" height="440" as="geometry" />
        </mxCell>
        <mxCell id="mvWhSziDv5Osz0h54IR4-24" value="Save changes" style="html=1;shadow=0;dashed=0;shape=mxgraph.bootstrap.rrect;rSize=5;strokeColor=none;strokeWidth=1;fillColor=#33A64C;fontColor=#FFFFFF;whiteSpace=wrap;align=center;verticalAlign=middle;spacingLeft=0;fontStyle=0;fontSize=16;spacing=5;" parent="1" vertex="1">
          <mxGeometry x="1810" y="400" width="130" height="40" as="geometry" />
        </mxCell>
        <mxCell id="mvWhSziDv5Osz0h54IR4-32" value="Name" style="fillColor=none;strokeColor=none;align=left;fontSize=14;" parent="1" vertex="1">
          <mxGeometry x="1570" y="100" width="260" height="40" as="geometry" />
        </mxCell>
        <mxCell id="mvWhSziDv5Osz0h54IR4-33" value="Roulette 1" style="html=1;shadow=0;dashed=0;shape=mxgraph.bootstrap.rrect;rSize=5;fillColor=none;strokeColor=#999999;align=left;spacing=15;fontSize=14;fontColor=#6C767D;" parent="1" vertex="1">
          <mxGeometry x="1570" y="140" width="370" height="30" as="geometry" />
        </mxCell>
        <mxCell id="mvWhSziDv5Osz0h54IR4-34" value="One item per line" style="fillColor=none;strokeColor=none;align=left;spacing=2;fontSize=12;fontColor=#999999;" parent="1" vertex="1">
          <mxGeometry x="1570" y="190" width="260" height="30" as="geometry" />
        </mxCell>
        <mxCell id="mvWhSziDv5Osz0h54IR4-37" value="Cook dinner&lt;div&gt;Read a book&lt;/div&gt;&lt;div&gt;Watch a romance movie&lt;/div&gt;" style="html=1;shadow=0;dashed=0;shape=mxgraph.bootstrap.rrect;rSize=5;strokeColor=#999999;strokeWidth=1;fillColor=#FFFFFF;fontColor=#6C767D;whiteSpace=wrap;align=left;verticalAlign=top;spacingLeft=10;fontSize=14;spacing=10;" parent="1" vertex="1">
          <mxGeometry x="1570" y="220" width="370" height="160" as="geometry" />
        </mxCell>
        <mxCell id="mvWhSziDv5Osz0h54IR4-38" value="Items" style="fillColor=none;strokeColor=none;align=left;fontSize=14;" parent="1" vertex="1">
          <mxGeometry x="1570" y="165" width="50" height="40" as="geometry" />
        </mxCell>
        <mxCell id="mvWhSziDv5Osz0h54IR4-39" value="" style="rounded=0;whiteSpace=wrap;html=1;" parent="1" vertex="1">
          <mxGeometry x="1410" y="530" width="570" height="440" as="geometry" />
        </mxCell>
        <mxCell id="mvWhSziDv5Osz0h54IR4-40" value="" style="rounded=0;whiteSpace=wrap;html=1;" parent="1" vertex="1">
          <mxGeometry x="1410" y="530" width="120" height="440" as="geometry" />
        </mxCell>
        <mxCell id="mvWhSziDv5Osz0h54IR4-42" value="Edit" style="html=1;shadow=0;dashed=0;shape=mxgraph.bootstrap.rrect;rSize=5;strokeColor=#001DBC;strokeWidth=1;fillColor=#0050ef;whiteSpace=wrap;align=center;verticalAlign=middle;spacingLeft=0;fontStyle=0;fontSize=16;spacing=5;fontColor=#ffffff;" parent="1" vertex="1">
          <mxGeometry x="1800" y="885" width="130" height="40" as="geometry" />
        </mxCell>
        <mxCell id="mvWhSziDv5Osz0h54IR4-54" value="" style="rounded=0;whiteSpace=wrap;html=1;" parent="1" vertex="1">
          <mxGeometry x="760" y="164.5" width="120" height="37.5" as="geometry" />
        </mxCell>
        <mxCell id="mvWhSziDv5Osz0h54IR4-4" value="Roulette 1" style="text;html=1;align=center;verticalAlign=middle;whiteSpace=wrap;rounded=0;" parent="1" vertex="1">
          <mxGeometry x="790" y="170" width="60" height="30" as="geometry" />
        </mxCell>
        <mxCell id="mvWhSziDv5Osz0h54IR4-58" value="" style="ellipse;whiteSpace=wrap;html=1;aspect=fixed;" parent="1" vertex="1">
          <mxGeometry x="1647" y="642" width="216" height="216" as="geometry" />
        </mxCell>
        <mxCell id="mvWhSziDv5Osz0h54IR4-59" value="Spin (Free)" style="html=1;shadow=0;dashed=0;shape=mxgraph.bootstrap.rrect;rSize=5;strokeColor=none;strokeWidth=1;fillColor=#33A64C;fontColor=#FFFFFF;whiteSpace=wrap;align=center;verticalAlign=middle;spacingLeft=0;fontStyle=0;fontSize=16;spacing=5;" parent="1" vertex="1">
          <mxGeometry x="1590" y="885" width="200" height="40" as="geometry" />
        </mxCell>
        <mxCell id="mvWhSziDv5Osz0h54IR4-60" value="" style="ellipse;whiteSpace=wrap;html=1;aspect=fixed;" parent="1" vertex="1">
          <mxGeometry x="1727.5" y="722.5" width="55" height="55" as="geometry" />
        </mxCell>
        <mxCell id="mvWhSziDv5Osz0h54IR4-77" value="&lt;h1 style=&quot;margin-top: 0px;&quot;&gt;&lt;font style=&quot;font-size: 18px;&quot;&gt;&lt;font style=&quot;&quot;&gt;Roulette &lt;/font&gt;1&lt;/font&gt;&lt;/h1&gt;" style="text;html=1;whiteSpace=wrap;overflow=hidden;rounded=0;" parent="1" vertex="1">
          <mxGeometry x="890" y="30" width="180" height="40" as="geometry" />
        </mxCell>
        <mxCell id="mvWhSziDv5Osz0h54IR4-78" value="&lt;h1 style=&quot;margin-top: 0px;&quot;&gt;&lt;font style=&quot;font-size: 18px;&quot;&gt;&lt;font style=&quot;&quot;&gt;Roulette &lt;/font&gt;1&lt;/font&gt;&lt;/h1&gt;" style="text;html=1;whiteSpace=wrap;overflow=hidden;rounded=0;" parent="1" vertex="1">
          <mxGeometry x="1547.5" y="30" width="180" height="40" as="geometry" />
        </mxCell>
        <mxCell id="mvWhSziDv5Osz0h54IR4-79" value="&lt;h1 style=&quot;margin-top: 0px;&quot;&gt;&lt;font style=&quot;font-size: 18px;&quot;&gt;&lt;font style=&quot;&quot;&gt;Roulette &lt;/font&gt;1&lt;/font&gt;&lt;/h1&gt;" style="text;html=1;whiteSpace=wrap;overflow=hidden;rounded=0;" parent="1" vertex="1">
          <mxGeometry x="890" y="540" width="180" height="40" as="geometry" />
        </mxCell>
        <mxCell id="mvWhSziDv5Osz0h54IR4-80" value="&lt;h1 style=&quot;margin-top: 0px;&quot;&gt;&lt;font style=&quot;font-size: 18px;&quot;&gt;&lt;font style=&quot;&quot;&gt;Roulette &lt;/font&gt;1&lt;/font&gt;&lt;/h1&gt;" style="text;html=1;whiteSpace=wrap;overflow=hidden;rounded=0;" parent="1" vertex="1">
          <mxGeometry x="1547.5" y="540" width="180" height="40" as="geometry" />
        </mxCell>
        <mxCell id="mvWhSziDv5Osz0h54IR4-82" value="" style="ellipse;whiteSpace=wrap;html=1;aspect=fixed;" parent="1" vertex="1">
          <mxGeometry x="760" y="30" width="20" height="20" as="geometry" />
        </mxCell>
        <mxCell id="mvWhSziDv5Osz0h54IR4-83" value="" style="endArrow=none;html=1;rounded=0;" parent="1" edge="1">
          <mxGeometry width="50" height="50" relative="1" as="geometry">
            <mxPoint x="896" y="77" as="sourcePoint" />
            <mxPoint x="1301" y="76" as="targetPoint" />
          </mxGeometry>
        </mxCell>
        <mxCell id="mvWhSziDv5Osz0h54IR4-85" value="" style="endArrow=none;html=1;rounded=0;" parent="1" edge="1">
          <mxGeometry width="50" height="50" relative="1" as="geometry">
            <mxPoint x="766" y="371" as="sourcePoint" />
            <mxPoint x="874" y="370" as="targetPoint" />
          </mxGeometry>
        </mxCell>
        <mxCell id="mvWhSziDv5Osz0h54IR4-86" value="" style="endArrow=none;html=1;rounded=0;" parent="1" edge="1">
          <mxGeometry width="50" height="50" relative="1" as="geometry">
            <mxPoint x="1547.5" y="81" as="sourcePoint" />
            <mxPoint x="1952.5" y="80" as="targetPoint" />
          </mxGeometry>
        </mxCell>
        <mxCell id="mvWhSziDv5Osz0h54IR4-87" value="" style="endArrow=none;html=1;rounded=0;" parent="1" edge="1">
          <mxGeometry width="50" height="50" relative="1" as="geometry">
            <mxPoint x="890" y="591" as="sourcePoint" />
            <mxPoint x="1295" y="590" as="targetPoint" />
          </mxGeometry>
        </mxCell>
        <mxCell id="mvWhSziDv5Osz0h54IR4-88" value="" style="endArrow=none;html=1;rounded=0;" parent="1" edge="1">
          <mxGeometry width="50" height="50" relative="1" as="geometry">
            <mxPoint x="1547.5" y="591" as="sourcePoint" />
            <mxPoint x="1952.5" y="590" as="targetPoint" />
          </mxGeometry>
        </mxCell>
        <mxCell id="mvWhSziDv5Osz0h54IR4-89" value="" style="rounded=0;whiteSpace=wrap;html=1;" parent="1" vertex="1">
          <mxGeometry x="760" y="1040" width="570" height="440" as="geometry" />
        </mxCell>
        <mxCell id="mvWhSziDv5Osz0h54IR4-90" value="" style="rounded=0;whiteSpace=wrap;html=1;" parent="1" vertex="1">
          <mxGeometry x="760" y="1040" width="120" height="440" as="geometry" />
        </mxCell>
        <mxCell id="mvWhSziDv5Osz0h54IR4-92" value="Membership: free" style="text;html=1;align=left;verticalAlign=middle;whiteSpace=wrap;rounded=0;" parent="1" vertex="1">
          <mxGeometry x="890" y="1140" width="140" height="30" as="geometry" />
        </mxCell>
        <mxCell id="mvWhSziDv5Osz0h54IR4-93" value="&lt;h1 style=&quot;margin-top: 0px;&quot;&gt;&lt;span style=&quot;font-size: 18px;&quot;&gt;My account&lt;/span&gt;&lt;/h1&gt;" style="text;html=1;whiteSpace=wrap;overflow=hidden;rounded=0;" parent="1" vertex="1">
          <mxGeometry x="890" y="1050" width="180" height="40" as="geometry" />
        </mxCell>
        <mxCell id="mvWhSziDv5Osz0h54IR4-94" value="" style="endArrow=none;html=1;rounded=0;" parent="1" edge="1">
          <mxGeometry width="50" height="50" relative="1" as="geometry">
            <mxPoint x="890" y="1101" as="sourcePoint" />
            <mxPoint x="1295" y="1100" as="targetPoint" />
          </mxGeometry>
        </mxCell>
        <mxCell id="mvWhSziDv5Osz0h54IR4-103" value="" style="rounded=0;whiteSpace=wrap;html=1;" parent="1" vertex="1">
          <mxGeometry x="1405" y="1040" width="570" height="440" as="geometry" />
        </mxCell>
        <mxCell id="mvWhSziDv5Osz0h54IR4-104" value="" style="rounded=0;whiteSpace=wrap;html=1;" parent="1" vertex="1">
          <mxGeometry x="1405" y="1040" width="120" height="440" as="geometry" />
        </mxCell>
        <mxCell id="mvWhSziDv5Osz0h54IR4-107" value="I promise I&#39;ll do it..." style="html=1;shadow=0;dashed=0;shape=mxgraph.bootstrap.rrect;rSize=5;strokeColor=none;strokeWidth=1;fillColor=#33A64C;fontColor=#FFFFFF;whiteSpace=wrap;align=center;verticalAlign=middle;spacingLeft=0;fontStyle=0;fontSize=16;spacing=5;" parent="1" vertex="1">
          <mxGeometry x="1655" y="1395" width="200" height="40" as="geometry" />
        </mxCell>
        <mxCell id="mvWhSziDv5Osz0h54IR4-109" value="&lt;h1 style=&quot;margin-top: 0px;&quot;&gt;&lt;font style=&quot;font-size: 18px;&quot;&gt;&lt;font style=&quot;&quot;&gt;Roulette &lt;/font&gt;1&lt;/font&gt;&lt;/h1&gt;" style="text;html=1;whiteSpace=wrap;overflow=hidden;rounded=0;" parent="1" vertex="1">
          <mxGeometry x="1542.5" y="1050" width="180" height="40" as="geometry" />
        </mxCell>
        <mxCell id="mvWhSziDv5Osz0h54IR4-110" value="" style="endArrow=none;html=1;rounded=0;" parent="1" edge="1">
          <mxGeometry width="50" height="50" relative="1" as="geometry">
            <mxPoint x="1542.5" y="1101" as="sourcePoint" />
            <mxPoint x="1947.5" y="1100" as="targetPoint" />
          </mxGeometry>
        </mxCell>
        <mxCell id="mvWhSziDv5Osz0h54IR4-111" value="You will do:" style="text;html=1;align=center;verticalAlign=middle;whiteSpace=wrap;rounded=0;" parent="1" vertex="1">
          <mxGeometry x="1701.5" y="1160" width="107" height="30" as="geometry" />
        </mxCell>
        <mxCell id="mvWhSziDv5Osz0h54IR4-112" value="&lt;h1 style=&quot;margin-top: 0px;&quot;&gt;Read a book&lt;/h1&gt;" style="text;html=1;whiteSpace=wrap;overflow=hidden;rounded=0;" parent="1" vertex="1">
          <mxGeometry x="1683" y="1230" width="147" height="70" as="geometry" />
        </mxCell>
        <mxCell id="mvWhSziDv5Osz0h54IR4-114" value="" style="rounded=0;whiteSpace=wrap;html=1;" parent="1" vertex="1">
          <mxGeometry x="1405" y="1550" width="570" height="440" as="geometry" />
        </mxCell>
        <mxCell id="mvWhSziDv5Osz0h54IR4-115" value="" style="rounded=0;whiteSpace=wrap;html=1;" parent="1" vertex="1">
          <mxGeometry x="1405" y="1550" width="120" height="440" as="geometry" />
        </mxCell>
        <mxCell id="mvWhSziDv5Osz0h54IR4-116" value="Edit" style="html=1;shadow=0;dashed=0;shape=mxgraph.bootstrap.rrect;rSize=5;strokeColor=#001DBC;strokeWidth=1;fillColor=#0050ef;whiteSpace=wrap;align=center;verticalAlign=middle;spacingLeft=0;fontStyle=0;fontSize=16;spacing=5;fontColor=#ffffff;" parent="1" vertex="1">
          <mxGeometry x="1795" y="1905" width="130" height="40" as="geometry" />
        </mxCell>
        <mxCell id="mvWhSziDv5Osz0h54IR4-117" value="" style="ellipse;whiteSpace=wrap;html=1;aspect=fixed;" parent="1" vertex="1">
          <mxGeometry x="1642" y="1662" width="216" height="216" as="geometry" />
        </mxCell>
        <mxCell id="mvWhSziDv5Osz0h54IR4-118" value="Spin ($1)" style="html=1;shadow=0;dashed=0;shape=mxgraph.bootstrap.rrect;rSize=5;strokeColor=none;strokeWidth=1;fillColor=#33A64C;fontColor=#FFFFFF;whiteSpace=wrap;align=center;verticalAlign=middle;spacingLeft=0;fontStyle=0;fontSize=16;spacing=5;" parent="1" vertex="1">
          <mxGeometry x="1585" y="1905" width="200" height="40" as="geometry" />
        </mxCell>
        <mxCell id="mvWhSziDv5Osz0h54IR4-119" value="" style="ellipse;whiteSpace=wrap;html=1;aspect=fixed;" parent="1" vertex="1">
          <mxGeometry x="1722.5" y="1742.5" width="55" height="55" as="geometry" />
        </mxCell>
        <mxCell id="mvWhSziDv5Osz0h54IR4-120" value="&lt;h1 style=&quot;margin-top: 0px;&quot;&gt;&lt;font style=&quot;font-size: 18px;&quot;&gt;&lt;font style=&quot;&quot;&gt;Roulette &lt;/font&gt;1&lt;/font&gt;&lt;/h1&gt;" style="text;html=1;whiteSpace=wrap;overflow=hidden;rounded=0;" parent="1" vertex="1">
          <mxGeometry x="1542.5" y="1560" width="180" height="40" as="geometry" />
        </mxCell>
        <mxCell id="mvWhSziDv5Osz0h54IR4-121" value="" style="endArrow=none;html=1;rounded=0;" parent="1" edge="1">
          <mxGeometry width="50" height="50" relative="1" as="geometry">
            <mxPoint x="1542.5" y="1611" as="sourcePoint" />
            <mxPoint x="1947.5" y="1610" as="targetPoint" />
          </mxGeometry>
        </mxCell>
        <mxCell id="mvWhSziDv5Osz0h54IR4-122" value="Delete account" style="html=1;shadow=0;dashed=0;shape=mxgraph.bootstrap.rrect;rSize=5;strokeColor=none;strokeWidth=1;fillColor=#DB2843;fontColor=#FFFFFF;whiteSpace=wrap;align=center;verticalAlign=middle;spacingLeft=0;fontStyle=0;fontSize=16;spacing=5;" parent="1" vertex="1">
          <mxGeometry x="890" y="1390" width="150" height="40" as="geometry" />
        </mxCell>
        <mxCell id="mvWhSziDv5Osz0h54IR4-123" value="" style="rounded=0;whiteSpace=wrap;html=1;" parent="1" vertex="1">
          <mxGeometry x="520" y="530" width="120" height="440" as="geometry" />
        </mxCell>
        <mxCell id="mvWhSziDv5Osz0h54IR4-124" value="Logout" style="text;html=1;align=center;verticalAlign=middle;whiteSpace=wrap;rounded=0;" parent="1" vertex="1">
          <mxGeometry x="550" y="930" width="60" height="30" as="geometry" />
        </mxCell>
        <mxCell id="mvWhSziDv5Osz0h54IR4-126" value="My account" style="text;html=1;align=center;verticalAlign=middle;whiteSpace=wrap;rounded=0;" parent="1" vertex="1">
          <mxGeometry x="550" y="900" width="60" height="30" as="geometry" />
        </mxCell>
        <mxCell id="mvWhSziDv5Osz0h54IR4-127" value="" style="rounded=0;whiteSpace=wrap;html=1;" parent="1" vertex="1">
          <mxGeometry x="520" y="674.5" width="120" height="37.5" as="geometry" />
        </mxCell>
        <mxCell id="mvWhSziDv5Osz0h54IR4-128" value="Roulette 1" style="text;html=1;align=center;verticalAlign=middle;whiteSpace=wrap;rounded=0;" parent="1" vertex="1">
          <mxGeometry x="550" y="680" width="60" height="30" as="geometry" />
        </mxCell>
        <mxCell id="mvWhSziDv5Osz0h54IR4-129" value="" style="ellipse;whiteSpace=wrap;html=1;aspect=fixed;" parent="1" vertex="1">
          <mxGeometry x="520" y="540" width="20" height="20" as="geometry" />
        </mxCell>
        <mxCell id="mvWhSziDv5Osz0h54IR4-130" value="" style="endArrow=none;html=1;rounded=0;" parent="1" edge="1">
          <mxGeometry width="50" height="50" relative="1" as="geometry">
            <mxPoint x="523.5" y="871" as="sourcePoint" />
            <mxPoint x="631.5" y="870" as="targetPoint" />
          </mxGeometry>
        </mxCell>
        <mxCell id="mvWhSziDv5Osz0h54IR4-131" value="&lt;h1 style=&quot;margin-top: 0px;&quot;&gt;&lt;font style=&quot;font-size: 18px;&quot;&gt;TODOulette&lt;/font&gt;&lt;/h1&gt;" style="text;html=1;whiteSpace=wrap;overflow=hidden;rounded=0;" parent="1" vertex="1">
          <mxGeometry x="540" y="530" width="140" height="40" as="geometry" />
        </mxCell>
        <mxCell id="mvWhSziDv5Osz0h54IR4-132" value="+" style="html=1;shadow=0;dashed=0;shape=mxgraph.bootstrap.rrect;rSize=5;strokeColor=none;strokeWidth=1;fillColor=#33A64C;fontColor=#FFFFFF;whiteSpace=wrap;align=center;verticalAlign=middle;spacingLeft=0;fontStyle=0;fontSize=16;spacing=5;" parent="1" vertex="1">
          <mxGeometry x="560" y="730" width="35" height="30" as="geometry" />
        </mxCell>
        <mxCell id="mvWhSziDv5Osz0h54IR4-133" value="" style="rounded=0;whiteSpace=wrap;html=1;" parent="1" vertex="1">
          <mxGeometry x="520" y="1010" width="120" height="440" as="geometry" />
        </mxCell>
        <mxCell id="mvWhSziDv5Osz0h54IR4-134" value="Logout" style="text;html=1;align=center;verticalAlign=middle;whiteSpace=wrap;rounded=0;" parent="1" vertex="1">
          <mxGeometry x="550" y="1410" width="60" height="30" as="geometry" />
        </mxCell>
        <mxCell id="mvWhSziDv5Osz0h54IR4-135" value="My account" style="text;html=1;align=center;verticalAlign=middle;whiteSpace=wrap;rounded=0;" parent="1" vertex="1">
          <mxGeometry x="550" y="1380" width="60" height="30" as="geometry" />
        </mxCell>
        <mxCell id="mvWhSziDv5Osz0h54IR4-136" value="Roulette 1" style="rounded=0;whiteSpace=wrap;html=1;" parent="1" vertex="1">
          <mxGeometry x="520" y="1154.5" width="120" height="37.5" as="geometry" />
        </mxCell>
        <mxCell id="mvWhSziDv5Osz0h54IR4-138" value="" style="ellipse;whiteSpace=wrap;html=1;aspect=fixed;" parent="1" vertex="1">
          <mxGeometry x="520" y="1020" width="20" height="20" as="geometry" />
        </mxCell>
        <mxCell id="mvWhSziDv5Osz0h54IR4-139" value="" style="endArrow=none;html=1;rounded=0;" parent="1" edge="1">
          <mxGeometry width="50" height="50" relative="1" as="geometry">
            <mxPoint x="526" y="1361" as="sourcePoint" />
            <mxPoint x="634" y="1360" as="targetPoint" />
          </mxGeometry>
        </mxCell>
        <mxCell id="mvWhSziDv5Osz0h54IR4-140" value="&lt;h1 style=&quot;margin-top: 0px;&quot;&gt;&lt;font style=&quot;font-size: 18px;&quot;&gt;TODOulette&lt;/font&gt;&lt;/h1&gt;" style="text;html=1;whiteSpace=wrap;overflow=hidden;rounded=0;" parent="1" vertex="1">
          <mxGeometry x="540" y="1010" width="140" height="40" as="geometry" />
        </mxCell>
        <mxCell id="mvWhSziDv5Osz0h54IR4-143" value="Routelle 2" style="text;html=1;align=center;verticalAlign=middle;whiteSpace=wrap;rounded=0;" parent="1" vertex="1">
          <mxGeometry x="548" y="1210" width="60" height="30" as="geometry" />
        </mxCell>
        <mxCell id="mvWhSziDv5Osz0h54IR4-144" value="+" style="html=1;shadow=0;dashed=0;shape=mxgraph.bootstrap.rrect;rSize=5;strokeColor=none;strokeWidth=1;fillColor=#33A64C;fontColor=#FFFFFF;whiteSpace=wrap;align=center;verticalAlign=middle;spacingLeft=0;fontStyle=0;fontSize=16;spacing=5;" parent="1" vertex="1">
          <mxGeometry x="562.5" y="1250" width="35" height="30" as="geometry" />
        </mxCell>
        <mxCell id="mvWhSziDv5Osz0h54IR4-145" value="" style="rounded=0;whiteSpace=wrap;html=1;" parent="1" vertex="1">
          <mxGeometry x="520" y="1520" width="120" height="440" as="geometry" />
        </mxCell>
        <mxCell id="mvWhSziDv5Osz0h54IR4-146" value="Logout" style="text;html=1;align=center;verticalAlign=middle;whiteSpace=wrap;rounded=0;" parent="1" vertex="1">
          <mxGeometry x="550" y="1920" width="60" height="30" as="geometry" />
        </mxCell>
        <mxCell id="mvWhSziDv5Osz0h54IR4-147" value="My account" style="text;html=1;align=center;verticalAlign=middle;whiteSpace=wrap;rounded=0;" parent="1" vertex="1">
          <mxGeometry x="550" y="1890" width="60" height="30" as="geometry" />
        </mxCell>
        <mxCell id="mvWhSziDv5Osz0h54IR4-148" value="Roulette 1" style="rounded=0;whiteSpace=wrap;html=1;" parent="1" vertex="1">
          <mxGeometry x="520" y="1664.5" width="120" height="37.5" as="geometry" />
        </mxCell>
        <mxCell id="mvWhSziDv5Osz0h54IR4-149" value="" style="ellipse;whiteSpace=wrap;html=1;aspect=fixed;" parent="1" vertex="1">
          <mxGeometry x="520" y="1530" width="20" height="20" as="geometry" />
        </mxCell>
        <mxCell id="mvWhSziDv5Osz0h54IR4-150" value="" style="endArrow=none;html=1;rounded=0;" parent="1" edge="1">
          <mxGeometry width="50" height="50" relative="1" as="geometry">
            <mxPoint x="526" y="1871" as="sourcePoint" />
            <mxPoint x="634" y="1870" as="targetPoint" />
          </mxGeometry>
        </mxCell>
        <mxCell id="mvWhSziDv5Osz0h54IR4-151" value="&lt;h1 style=&quot;margin-top: 0px;&quot;&gt;&lt;font style=&quot;font-size: 18px;&quot;&gt;TODOulette&lt;/font&gt;&lt;/h1&gt;" style="text;html=1;whiteSpace=wrap;overflow=hidden;rounded=0;" parent="1" vertex="1">
          <mxGeometry x="540" y="1520" width="140" height="40" as="geometry" />
        </mxCell>
        <mxCell id="mvWhSziDv5Osz0h54IR4-152" value="Routelle 2" style="text;html=1;align=center;verticalAlign=middle;whiteSpace=wrap;rounded=0;" parent="1" vertex="1">
          <mxGeometry x="548" y="1720" width="60" height="30" as="geometry" />
        </mxCell>
        <mxCell id="mvWhSziDv5Osz0h54IR4-154" value="Routelle 3" style="text;html=1;align=center;verticalAlign=middle;whiteSpace=wrap;rounded=0;" parent="1" vertex="1">
          <mxGeometry x="550" y="1767.5" width="60" height="30" as="geometry" />
        </mxCell>
        <mxCell id="mvWhSziDv5Osz0h54IR4-155" value="Unlock more routelles with Platinum" style="text;html=1;align=center;verticalAlign=middle;whiteSpace=wrap;rounded=0;" parent="1" vertex="1">
          <mxGeometry x="536.5" y="1820" width="82" height="30" as="geometry" />
        </mxCell>
        <mxCell id="mvWhSziDv5Osz0h54IR4-156" value="" style="rounded=1;whiteSpace=wrap;html=1;" parent="1" vertex="1">
          <mxGeometry x="890" y="1190" width="120" height="150" as="geometry" />
        </mxCell>
        <mxCell id="mvWhSziDv5Osz0h54IR4-157" value="" style="rounded=1;whiteSpace=wrap;html=1;" parent="1" vertex="1">
          <mxGeometry x="1030" y="1190" width="120" height="150" as="geometry" />
        </mxCell>
        <mxCell id="mvWhSziDv5Osz0h54IR4-158" value="" style="rounded=1;whiteSpace=wrap;html=1;" parent="1" vertex="1">
          <mxGeometry x="1170" y="1190" width="120" height="150" as="geometry" />
        </mxCell>
        <mxCell id="mvWhSziDv5Osz0h54IR4-159" value="&lt;h1 style=&quot;margin-top: 0px;&quot;&gt;&lt;font style=&quot;font-size: 20px;&quot;&gt;Free&lt;/font&gt;&lt;/h1&gt;&lt;div&gt;1 routelle&lt;/div&gt;&lt;div&gt;1 free spin per roulette&lt;/div&gt;" style="text;html=1;whiteSpace=wrap;overflow=hidden;rounded=0;" parent="1" vertex="1">
          <mxGeometry x="900" y="1200" width="90" height="120" as="geometry" />
        </mxCell>
        <mxCell id="mvWhSziDv5Osz0h54IR4-160" value="&lt;h1 style=&quot;margin-top: 0px;&quot;&gt;&lt;font style=&quot;font-size: 20px;&quot;&gt;Premium&lt;/font&gt;&lt;/h1&gt;&lt;div&gt;3 routelles&lt;/div&gt;&lt;div&gt;3 free spins per roulette&lt;/div&gt;" style="text;html=1;whiteSpace=wrap;overflow=hidden;rounded=0;" parent="1" vertex="1">
          <mxGeometry x="1040" y="1200" width="90" height="120" as="geometry" />
        </mxCell>
        <mxCell id="mvWhSziDv5Osz0h54IR4-161" value="&lt;h1 style=&quot;margin-top: 0px;&quot;&gt;&lt;font style=&quot;font-size: 20px;&quot;&gt;Platinum&lt;/font&gt;&lt;/h1&gt;&lt;div&gt;5 routelles&lt;/div&gt;&lt;div&gt;Unlimited spins per roulette&lt;/div&gt;" style="text;html=1;whiteSpace=wrap;overflow=hidden;rounded=0;" parent="1" vertex="1">
          <mxGeometry x="1185" y="1200" width="90" height="120" as="geometry" />
        </mxCell>
        <mxCell id="mvWhSziDv5Osz0h54IR4-163" value="" style="rounded=0;whiteSpace=wrap;html=1;" parent="1" vertex="1">
          <mxGeometry x="1410" y="2080" width="570" height="440" as="geometry" />
        </mxCell>
        <mxCell id="mvWhSziDv5Osz0h54IR4-164" value="" style="rounded=0;whiteSpace=wrap;html=1;" parent="1" vertex="1">
          <mxGeometry x="1410" y="2080" width="120" height="440" as="geometry" />
        </mxCell>
        <mxCell id="mvWhSziDv5Osz0h54IR4-165" value="Edit" style="html=1;shadow=0;dashed=0;shape=mxgraph.bootstrap.rrect;rSize=5;strokeColor=#001DBC;strokeWidth=1;fillColor=#0050ef;whiteSpace=wrap;align=center;verticalAlign=middle;spacingLeft=0;fontStyle=0;fontSize=16;spacing=5;fontColor=#ffffff;" parent="1" vertex="1">
          <mxGeometry x="1800" y="2435" width="130" height="40" as="geometry" />
        </mxCell>
        <mxCell id="mvWhSziDv5Osz0h54IR4-166" value="" style="ellipse;whiteSpace=wrap;html=1;aspect=fixed;" parent="1" vertex="1">
          <mxGeometry x="1647" y="2192" width="216" height="216" as="geometry" />
        </mxCell>
        <mxCell id="mvWhSziDv5Osz0h54IR4-167" value="Spin ($1)" style="html=1;shadow=0;dashed=0;shape=mxgraph.bootstrap.rrect;rSize=5;strokeColor=none;strokeWidth=1;fillColor=#33A64C;fontColor=#FFFFFF;whiteSpace=wrap;align=center;verticalAlign=middle;spacingLeft=0;fontStyle=0;fontSize=16;spacing=5;" parent="1" vertex="1">
          <mxGeometry x="1590" y="2435" width="200" height="40" as="geometry" />
        </mxCell>
        <mxCell id="mvWhSziDv5Osz0h54IR4-168" value="" style="ellipse;whiteSpace=wrap;html=1;aspect=fixed;" parent="1" vertex="1">
          <mxGeometry x="1727.5" y="2272.5" width="55" height="55" as="geometry" />
        </mxCell>
        <mxCell id="mvWhSziDv5Osz0h54IR4-169" value="&lt;h1 style=&quot;margin-top: 0px;&quot;&gt;&lt;font style=&quot;font-size: 18px;&quot;&gt;&lt;font style=&quot;&quot;&gt;Roulette &lt;/font&gt;1&lt;/font&gt;&lt;/h1&gt;" style="text;html=1;whiteSpace=wrap;overflow=hidden;rounded=0;" parent="1" vertex="1">
          <mxGeometry x="1547.5" y="2090" width="180" height="40" as="geometry" />
        </mxCell>
        <mxCell id="mvWhSziDv5Osz0h54IR4-170" value="" style="endArrow=none;html=1;rounded=0;" parent="1" edge="1">
          <mxGeometry width="50" height="50" relative="1" as="geometry">
            <mxPoint x="1547.5" y="2141" as="sourcePoint" />
            <mxPoint x="1952.5" y="2140" as="targetPoint" />
          </mxGeometry>
        </mxCell>
        <mxCell id="mvWhSziDv5Osz0h54IR4-174" value="Purchase 1 spin&lt;div&gt;&lt;br&gt;&lt;/div&gt;&lt;div&gt;PAYPAL&lt;/div&gt;" style="rounded=1;whiteSpace=wrap;html=1;" parent="1" vertex="1">
          <mxGeometry x="1590" y="2192" width="320" height="180" as="geometry" />
        </mxCell>
        <mxCell id="mvWhSziDv5Osz0h54IR4-175" value="" style="rounded=0;whiteSpace=wrap;html=1;" parent="1" vertex="1">
          <mxGeometry x="1410" y="2600" width="570" height="440" as="geometry" />
        </mxCell>
        <mxCell id="mvWhSziDv5Osz0h54IR4-176" value="" style="rounded=0;whiteSpace=wrap;html=1;" parent="1" vertex="1">
          <mxGeometry x="1410" y="2600" width="120" height="440" as="geometry" />
        </mxCell>
        <mxCell id="mvWhSziDv5Osz0h54IR4-177" value="Edit" style="html=1;shadow=0;dashed=0;shape=mxgraph.bootstrap.rrect;rSize=5;strokeColor=#001DBC;strokeWidth=1;fillColor=#0050ef;whiteSpace=wrap;align=center;verticalAlign=middle;spacingLeft=0;fontStyle=0;fontSize=16;spacing=5;fontColor=#ffffff;" parent="1" vertex="1">
          <mxGeometry x="1800" y="2955" width="130" height="40" as="geometry" />
        </mxCell>
        <mxCell id="mvWhSziDv5Osz0h54IR4-178" value="" style="ellipse;whiteSpace=wrap;html=1;aspect=fixed;" parent="1" vertex="1">
          <mxGeometry x="1647" y="2712" width="216" height="216" as="geometry" />
        </mxCell>
        <mxCell id="mvWhSziDv5Osz0h54IR4-179" value="Spin" style="html=1;shadow=0;dashed=0;shape=mxgraph.bootstrap.rrect;rSize=5;strokeColor=none;strokeWidth=1;fillColor=#33A64C;fontColor=#FFFFFF;whiteSpace=wrap;align=center;verticalAlign=middle;spacingLeft=0;fontStyle=0;fontSize=16;spacing=5;" parent="1" vertex="1">
          <mxGeometry x="1590" y="2955" width="200" height="40" as="geometry" />
        </mxCell>
        <mxCell id="mvWhSziDv5Osz0h54IR4-180" value="" style="ellipse;whiteSpace=wrap;html=1;aspect=fixed;" parent="1" vertex="1">
          <mxGeometry x="1727.5" y="2792.5" width="55" height="55" as="geometry" />
        </mxCell>
        <mxCell id="mvWhSziDv5Osz0h54IR4-181" value="&lt;h1 style=&quot;margin-top: 0px;&quot;&gt;&lt;font style=&quot;font-size: 18px;&quot;&gt;&lt;font style=&quot;&quot;&gt;Roulette &lt;/font&gt;1&lt;/font&gt;&lt;/h1&gt;" style="text;html=1;whiteSpace=wrap;overflow=hidden;rounded=0;" parent="1" vertex="1">
          <mxGeometry x="1547.5" y="2610" width="180" height="40" as="geometry" />
        </mxCell>
        <mxCell id="mvWhSziDv5Osz0h54IR4-182" value="" style="endArrow=none;html=1;rounded=0;" parent="1" edge="1">
          <mxGeometry width="50" height="50" relative="1" as="geometry">
            <mxPoint x="1547.5" y="2661" as="sourcePoint" />
            <mxPoint x="1952.5" y="2660" as="targetPoint" />
          </mxGeometry>
        </mxCell>
      </root>
    </mxGraphModel>
  </diagram>
</mxfile>
